<svg width="500" height="160" viewBox="0 0 500 160" fill="none" xmlns="http://www.w3.org/2000/svg">
<path d="M205.4 63.16C200.68 67.8 196.36 68.68 193.16 68.68C186.6 68.68 182.76 65.32 181.64 64.2C179.24 61.88 177 57.96 177 52.44C177 47.32 179.08 43 182.04 40.12C184.84 37.4 188.44 35.96 192.92 35.96C198.6 35.96 202.68 38.76 205.4 41.64V27.4C200.2 25.16 196.12 24.44 192.6 24.44C184.28 24.44 177.4 27.56 172.68 32.12C167.88 36.76 164.36 43.8 164.36 52.2C164.36 60.76 167.88 67.8 172.68 72.44C177.16 76.84 183.8 80.2 193.64 80.2C196.84 80.2 200.68 79.72 205.4 77.32V63.16ZM214.238 20.68V79H225.758V20.68H214.238ZM245.331 56.28C245.651 54.68 246.451 53.4 247.331 52.44C248.451 51.32 250.211 50.12 253.171 50.12C255.491 50.12 257.331 50.92 258.611 52.12C260.291 53.72 260.851 55.96 260.931 56.28H245.331ZM271.571 61.96C271.571 57.56 270.771 51.96 266.531 47.48C262.131 42.84 256.371 42.12 252.371 42.12C248.371 42.12 243.011 42.92 238.691 47.24C235.091 50.92 233.251 56.2 233.251 61.32C233.251 67.24 235.491 71.96 238.611 75.08C242.771 79.24 247.491 80.2 252.851 80.2C256.851 80.2 260.691 79.64 264.131 77.56C266.211 76.28 269.411 73.64 271.011 68.6L260.131 67.48C259.171 69.48 257.811 70.36 257.651 70.44C256.451 71.16 254.691 71.48 253.011 71.48C251.251 71.48 248.851 71.16 247.091 69.24C245.651 67.64 244.931 65.08 244.931 63.16H271.571V61.96ZM289.081 56.28C289.401 54.68 290.201 53.4 291.081 52.44C292.201 51.32 293.961 50.12 296.921 50.12C299.241 50.12 301.081 50.92 302.361 52.12C304.041 53.72 304.601 55.96 304.681 56.28H289.081ZM315.321 61.96C315.321 57.56 314.521 51.96 310.281 47.48C305.881 42.84 300.121 42.12 296.121 42.12C292.121 42.12 286.761 42.92 282.441 47.24C278.841 50.92 277.001 56.2 277.001 61.32C277.001 67.24 279.241 71.96 282.361 75.08C286.521 79.24 291.241 80.2 296.601 80.2C300.601 80.2 304.441 79.64 307.881 77.56C309.961 76.28 313.161 73.64 314.761 68.6L303.881 67.48C302.921 69.48 301.561 70.36 301.401 70.44C300.201 71.16 298.441 71.48 296.761 71.48C295.001 71.48 292.601 71.16 290.841 69.24C289.401 67.64 288.681 65.08 288.681 63.16H315.321V61.96ZM322.511 79H334.031V60.68C334.031 58.36 334.351 55.8 336.271 53.88C337.151 52.92 338.671 51.96 341.071 51.96C343.151 51.96 344.591 52.68 345.471 53.56C347.311 55.4 347.391 58.36 347.391 60.68V79H358.911V56.44C358.911 53.56 358.671 49.32 355.311 45.96C352.271 42.92 348.191 42.36 345.071 42.36C341.711 42.36 337.551 43.08 334.031 47.56V43.32H322.511V79ZM378.222 56.28C378.542 54.68 379.342 53.4 380.222 52.44C381.342 51.32 383.102 50.12 386.062 50.12C388.382 50.12 390.222 50.92 391.502 52.12C393.182 53.72 393.742 55.96 393.822 56.28H378.222ZM404.462 61.96C404.462 57.56 403.662 51.96 399.422 47.48C395.022 42.84 389.262 42.12 385.262 42.12C381.262 42.12 375.902 42.92 371.582 47.24C367.982 50.92 366.142 56.2 366.142 61.32C366.142 67.24 368.382 71.96 371.502 75.08C375.662 79.24 380.382 80.2 385.742 80.2C389.742 80.2 393.582 79.64 397.022 77.56C399.102 76.28 402.302 73.64 403.902 68.6L393.022 67.48C392.062 69.48 390.702 70.36 390.542 70.44C389.342 71.16 387.582 71.48 385.902 71.48C384.142 71.48 381.742 71.16 379.982 69.24C378.542 67.64 377.822 65.08 377.822 63.16H404.462V61.96ZM411.652 79H423.172V64.52C423.172 61.48 423.412 57.64 425.972 54.92C427.412 53.4 429.252 52.52 431.732 52.52C433.732 52.52 435.412 53 436.932 53.8L437.572 43C436.292 42.6 435.252 42.44 433.812 42.44C431.572 42.44 429.572 42.76 427.652 43.96C425.812 45.08 424.212 46.92 423.172 48.92V43.32H411.652V79Z" fill="#13287E"/>
<path d="M177.905 118.064C179.021 118.388 179.876 118.955 180.47 119.765C181.082 120.575 181.388 121.574 181.388 122.762C181.388 124.4 180.803 125.687 179.633 126.623C178.481 127.541 176.87 128 174.8 128H166.079V108.776H174.53C176.51 108.776 178.067 109.226 179.201 110.126C180.335 111.008 180.902 112.232 180.902 113.798C180.902 114.806 180.632 115.688 180.092 116.444C179.57 117.182 178.841 117.722 177.905 118.064ZM169.481 116.876H173.963C176.375 116.876 177.581 115.976 177.581 114.176C177.581 113.276 177.284 112.601 176.69 112.151C176.096 111.701 175.187 111.476 173.963 111.476H169.481V116.876ZM174.422 125.3C175.682 125.3 176.6 125.075 177.176 124.625C177.77 124.175 178.067 123.464 178.067 122.492C178.067 121.502 177.77 120.773 177.176 120.305C176.6 119.837 175.682 119.603 174.422 119.603H169.481V125.3H174.422ZM196.412 121.358H187.016C187.088 122.816 187.448 123.896 188.096 124.598C188.762 125.282 189.743 125.624 191.039 125.624C192.533 125.624 193.919 125.138 195.197 124.166L196.169 126.488C195.521 127.01 194.72 127.433 193.766 127.757C192.83 128.063 191.876 128.216 190.904 128.216C188.672 128.216 186.917 127.586 185.639 126.326C184.361 125.066 183.722 123.338 183.722 121.142C183.722 119.756 184.001 118.523 184.559 117.443C185.117 116.363 185.9 115.526 186.908 114.932C187.916 114.32 189.059 114.014 190.337 114.014C192.209 114.014 193.685 114.626 194.765 115.85C195.863 117.056 196.412 118.721 196.412 120.845V121.358ZM190.418 116.444C189.518 116.444 188.78 116.714 188.204 117.254C187.646 117.776 187.286 118.541 187.124 119.549H193.469C193.361 118.523 193.046 117.749 192.524 117.227C192.02 116.705 191.318 116.444 190.418 116.444ZM204.265 128.216C201.799 128.216 199.837 127.64 198.379 126.488L199.324 124.112C200.782 125.192 202.447 125.732 204.319 125.732C205.129 125.732 205.75 125.597 206.182 125.327C206.632 125.057 206.857 124.679 206.857 124.193C206.857 123.779 206.704 123.455 206.398 123.221C206.092 122.969 205.57 122.753 204.832 122.573L202.564 122.06C200.08 121.52 198.838 120.251 198.838 118.253C198.838 117.425 199.072 116.696 199.54 116.066C200.008 115.418 200.665 114.914 201.511 114.554C202.357 114.194 203.338 114.014 204.454 114.014C205.426 114.014 206.362 114.167 207.262 114.473C208.162 114.761 208.954 115.184 209.638 115.742L208.639 118.037C207.271 117.029 205.867 116.525 204.427 116.525C203.653 116.525 203.05 116.669 202.618 116.957C202.186 117.245 201.97 117.641 201.97 118.145C201.97 118.541 202.096 118.856 202.348 119.09C202.618 119.324 203.068 119.522 203.698 119.684L206.02 120.197C207.37 120.503 208.351 120.98 208.963 121.628C209.593 122.258 209.908 123.086 209.908 124.112C209.908 125.372 209.404 126.371 208.396 127.109C207.388 127.847 206.011 128.216 204.265 128.216ZM216.957 116.903V123.005C216.957 124.607 217.704 125.408 219.198 125.408C219.612 125.408 220.062 125.336 220.548 125.192V127.865C219.954 128.081 219.234 128.189 218.388 128.189C216.84 128.189 215.652 127.757 214.824 126.893C213.996 126.029 213.582 124.787 213.582 123.167V116.903H210.963V114.365H213.582V111.044L216.957 109.91V114.365H220.575V116.903H216.957ZM239.268 128.243C237.378 128.243 235.722 127.838 234.3 127.028C232.896 126.218 231.816 125.075 231.06 123.599C230.304 122.105 229.926 120.359 229.926 118.361C229.926 116.381 230.304 114.653 231.06 113.177C231.816 111.683 232.896 110.54 234.3 109.748C235.722 108.938 237.378 108.533 239.268 108.533C240.564 108.533 241.779 108.74 242.913 109.154C244.065 109.55 245.019 110.108 245.775 110.828L244.641 113.366C243.777 112.664 242.913 112.16 242.049 111.854C241.203 111.53 240.294 111.368 239.322 111.368C237.468 111.368 236.028 111.971 235.002 113.177C233.994 114.383 233.49 116.111 233.49 118.361C233.49 120.629 233.994 122.375 235.002 123.599C236.01 124.805 237.45 125.408 239.322 125.408C240.294 125.408 241.203 125.255 242.049 124.949C242.913 124.625 243.777 124.112 244.641 123.41L245.775 125.948C245.019 126.668 244.065 127.235 242.913 127.649C241.779 128.045 240.564 128.243 239.268 128.243ZM248.787 108.128H252.135V128H248.787V108.128ZM267.761 121.358H258.365C258.437 122.816 258.797 123.896 259.445 124.598C260.111 125.282 261.092 125.624 262.388 125.624C263.882 125.624 265.268 125.138 266.546 124.166L267.518 126.488C266.87 127.01 266.069 127.433 265.115 127.757C264.179 128.063 263.225 128.216 262.253 128.216C260.021 128.216 258.266 127.586 256.988 126.326C255.71 125.066 255.071 123.338 255.071 121.142C255.071 119.756 255.35 118.523 255.908 117.443C256.466 116.363 257.249 115.526 258.257 114.932C259.265 114.32 260.408 114.014 261.686 114.014C263.558 114.014 265.034 114.626 266.114 115.85C267.212 117.056 267.761 118.721 267.761 120.845V121.358ZM261.767 116.444C260.867 116.444 260.129 116.714 259.553 117.254C258.995 117.776 258.635 118.541 258.473 119.549H264.818C264.71 118.523 264.395 117.749 263.873 117.227C263.369 116.705 262.667 116.444 261.767 116.444ZM283.66 114.365V128H280.339V125.813C279.925 126.569 279.331 127.163 278.557 127.595C277.783 128.009 276.901 128.216 275.911 128.216C274.723 128.216 273.67 127.928 272.752 127.352C271.834 126.776 271.123 125.957 270.619 124.895C270.115 123.833 269.863 122.6 269.863 121.196C269.863 119.792 270.115 118.55 270.619 117.47C271.141 116.372 271.861 115.526 272.779 114.932C273.697 114.32 274.741 114.014 275.911 114.014C276.901 114.014 277.783 114.23 278.557 114.662C279.331 115.076 279.925 115.661 280.339 116.417V114.365H283.66ZM276.829 125.57C277.945 125.57 278.809 125.183 279.421 124.409C280.033 123.635 280.339 122.546 280.339 121.142C280.339 119.702 280.033 118.595 279.421 117.821C278.809 117.047 277.936 116.66 276.802 116.66C275.686 116.66 274.813 117.065 274.183 117.875C273.571 118.667 273.265 119.774 273.265 121.196C273.265 122.6 273.571 123.68 274.183 124.436C274.813 125.192 275.695 125.57 276.829 125.57ZM295.139 114.014C298.397 114.014 300.026 115.886 300.026 119.63V128H296.651V119.792C296.651 118.712 296.444 117.929 296.03 117.443C295.616 116.939 294.977 116.687 294.113 116.687C293.087 116.687 292.259 117.02 291.629 117.686C290.999 118.334 290.684 119.198 290.684 120.278V128H287.336V118.226C287.336 116.786 287.264 115.499 287.12 114.365H290.279L290.522 116.606C290.99 115.778 291.62 115.139 292.412 114.689C293.222 114.239 294.131 114.014 295.139 114.014ZM303.605 114.365H306.953V128H303.605V114.365ZM307.142 108.182V111.503H303.389V108.182H307.142ZM318.448 114.014C321.706 114.014 323.335 115.886 323.335 119.63V128H319.96V119.792C319.96 118.712 319.753 117.929 319.339 117.443C318.925 116.939 318.286 116.687 317.422 116.687C316.396 116.687 315.568 117.02 314.938 117.686C314.308 118.334 313.993 119.198 313.993 120.278V128H310.645V118.226C310.645 116.786 310.573 115.499 310.429 114.365H313.588L313.831 116.606C314.299 115.778 314.929 115.139 315.721 114.689C316.531 114.239 317.44 114.014 318.448 114.014ZM340.089 114.365V127.568C340.089 129.692 339.504 131.303 338.334 132.401C337.164 133.499 335.445 134.048 333.177 134.048C331.071 134.048 329.217 133.607 327.615 132.725L328.155 130.16C329.811 131.024 331.458 131.456 333.096 131.456C335.526 131.456 336.741 130.25 336.741 127.838V125.138C336.327 125.876 335.724 126.479 334.932 126.947C334.14 127.397 333.249 127.622 332.259 127.622C331.071 127.622 330.009 127.343 329.073 126.785C328.155 126.209 327.435 125.408 326.913 124.382C326.409 123.338 326.157 122.15 326.157 120.818C326.157 119.486 326.409 118.307 326.913 117.281C327.435 116.237 328.155 115.436 329.073 114.878C330.009 114.302 331.071 114.014 332.259 114.014C333.267 114.014 334.158 114.23 334.932 114.662C335.724 115.076 336.327 115.661 336.741 116.417V114.365H340.089ZM333.15 124.976C334.266 124.976 335.139 124.607 335.769 123.869C336.417 123.131 336.741 122.114 336.741 120.818C336.741 119.522 336.426 118.505 335.796 117.767C335.166 117.029 334.284 116.66 333.15 116.66C332.034 116.66 331.152 117.029 330.504 117.767C329.874 118.505 329.559 119.522 329.559 120.818C329.559 122.114 329.874 123.131 330.504 123.869C331.152 124.607 332.034 124.976 333.15 124.976ZM357.895 128.243C356.419 128.243 355.033 128.045 353.737 127.649C352.459 127.253 351.37 126.686 350.47 125.948L351.658 123.41C352.594 124.112 353.566 124.634 354.574 124.976C355.6 125.3 356.716 125.462 357.922 125.462C359.254 125.462 360.28 125.228 361 124.76C361.738 124.292 362.107 123.635 362.107 122.789C362.107 122.069 361.765 121.52 361.081 121.142C360.415 120.746 359.308 120.377 357.76 120.035C355.348 119.513 353.593 118.838 352.495 118.01C351.397 117.182 350.848 115.976 350.848 114.392C350.848 113.258 351.154 112.25 351.766 111.368C352.378 110.486 353.242 109.793 354.358 109.289C355.492 108.785 356.797 108.533 358.273 108.533C359.623 108.533 360.901 108.74 362.107 109.154C363.331 109.55 364.33 110.108 365.104 110.828L363.943 113.366C362.233 111.998 360.343 111.314 358.273 111.314C357.031 111.314 356.05 111.575 355.33 112.097C354.61 112.601 354.25 113.294 354.25 114.176C354.25 114.932 354.565 115.508 355.195 115.904C355.843 116.3 356.941 116.669 358.489 117.011C360.091 117.389 361.396 117.803 362.404 118.253C363.412 118.685 364.186 119.252 364.726 119.954C365.266 120.638 365.536 121.502 365.536 122.546C365.536 123.698 365.23 124.706 364.618 125.57C364.006 126.416 363.124 127.073 361.972 127.541C360.82 128.009 359.461 128.243 357.895 128.243ZM380.455 121.358H371.059C371.131 122.816 371.491 123.896 372.139 124.598C372.805 125.282 373.786 125.624 375.082 125.624C376.576 125.624 377.962 125.138 379.24 124.166L380.212 126.488C379.564 127.01 378.763 127.433 377.809 127.757C376.873 128.063 375.919 128.216 374.947 128.216C372.715 128.216 370.96 127.586 369.682 126.326C368.404 125.066 367.765 123.338 367.765 121.142C367.765 119.756 368.044 118.523 368.602 117.443C369.16 116.363 369.943 115.526 370.951 114.932C371.959 114.32 373.102 114.014 374.38 114.014C376.252 114.014 377.728 114.626 378.808 115.85C379.906 117.056 380.455 118.721 380.455 120.845V121.358ZM374.461 116.444C373.561 116.444 372.823 116.714 372.247 117.254C371.689 117.776 371.329 118.541 371.167 119.549H377.512C377.404 118.523 377.089 117.749 376.567 117.227C376.063 116.705 375.361 116.444 374.461 116.444ZM390.657 114.041C391.179 114.041 391.629 114.113 392.007 114.257L391.98 117.335C391.404 117.101 390.81 116.984 390.198 116.984C389.046 116.984 388.164 117.317 387.552 117.983C386.958 118.649 386.661 119.531 386.661 120.629V128H383.313V118.226C383.313 116.786 383.241 115.499 383.097 114.365H386.256L386.526 116.768C386.868 115.886 387.408 115.211 388.146 114.743C388.884 114.275 389.721 114.041 390.657 114.041ZM407.609 114.392L401.642 128H398.699L392.813 114.392H396.35L400.265 124.166L404.261 114.392H407.609ZM409.363 114.365H412.711V128H409.363V114.365ZM412.9 108.182V111.503H409.147V108.182H412.9ZM422.586 128.216C421.164 128.216 419.931 127.928 418.887 127.352C417.843 126.776 417.042 125.966 416.484 124.922C415.926 123.86 415.647 122.618 415.647 121.196C415.647 119.774 415.935 118.523 416.511 117.443C417.105 116.363 417.933 115.526 418.995 114.932C420.075 114.32 421.317 114.014 422.721 114.014C423.693 114.014 424.629 114.167 425.529 114.473C426.447 114.779 427.176 115.202 427.716 115.742L426.771 118.118C426.195 117.65 425.583 117.299 424.935 117.065C424.287 116.813 423.648 116.687 423.018 116.687C421.794 116.687 420.84 117.074 420.156 117.848C419.472 118.604 419.13 119.702 419.13 121.142C419.13 122.582 419.463 123.68 420.129 124.436C420.813 125.192 421.776 125.57 423.018 125.57C423.648 125.57 424.287 125.444 424.935 125.192C425.583 124.94 426.195 124.58 426.771 124.112L427.716 126.488C427.14 127.028 426.393 127.451 425.475 127.757C424.557 128.063 423.594 128.216 422.586 128.216ZM441.916 121.358H432.52C432.592 122.816 432.952 123.896 433.6 124.598C434.266 125.282 435.247 125.624 436.543 125.624C438.037 125.624 439.423 125.138 440.701 124.166L441.673 126.488C441.025 127.01 440.224 127.433 439.27 127.757C438.334 128.063 437.38 128.216 436.408 128.216C434.176 128.216 432.421 127.586 431.143 126.326C429.865 125.066 429.226 123.338 429.226 121.142C429.226 119.756 429.505 118.523 430.063 117.443C430.621 116.363 431.404 115.526 432.412 114.932C433.42 114.32 434.563 114.014 435.841 114.014C437.713 114.014 439.189 114.626 440.269 115.85C441.367 117.056 441.916 118.721 441.916 120.845V121.358ZM435.922 116.444C435.022 116.444 434.284 116.714 433.708 117.254C433.15 117.776 432.79 118.541 432.628 119.549H438.973C438.865 118.523 438.55 117.749 438.028 117.227C437.524 116.705 436.822 116.444 435.922 116.444Z" fill="#0D4592"/>
<path d="M140.085 13.9498L142.677 19.178C142.677 19.178 144.544 17.8474 122.454 23.4868C110.382 26.5709 103.598 29.7959 101.837 30.6947C101.875 31.5292 101.877 32.3952 101.794 33.3286C100.977 42.3993 90.4213 45.7777 86.3736 46.7485L78.4488 17.278C80.7692 16.9707 84.5479 16.629 87.5274 17.1515C92.3941 18.0009 98.3887 20.143 100.796 25.8155C102.911 24.6554 106.363 23.0189 111.652 21.1846C121.988 17.5961 140.085 13.9498 140.085 13.9498Z" fill="#13287E"/>
<path d="M79.4543 28.913C71.2003 30.5853 65.2156 34.5725 59.9986 38.7185C58.498 39.9132 56.5863 41.5695 54.8718 43.4399C53.9857 41.0011 53.2744 38.9294 52.7412 37.1503C58.3714 30.689 69.1002 24.1778 77.96 23.5277L79.4543 28.913Z" fill="#13287E"/>
<path d="M60.8394 39.7857C65.9398 35.7346 71.7844 31.8386 79.816 30.2267L81.2302 35.3422C71.1983 38.2662 63.2344 43.7652 57.9452 51.3879C57.145 49.454 56.3242 47.3752 55.5142 45.1867C55.4744 45.0811 55.4424 44.9873 55.4025 44.8818C56.8489 43.229 58.7168 41.475 60.8394 39.7857Z" fill="#13287E"/>
<path d="M77.5941 22.1859C68.7391 22.9614 58.2157 29.2202 52.3113 35.6129C51.1565 31.1853 51.401 28.8204 53.277 27.0938C56.1977 24.4032 63.7228 20.9258 69.3296 19.2536C71.0034 18.7551 74.8024 17.9783 76.3448 17.6807L77.5941 22.1859Z" fill="#13287E"/>
<path d="M83.2913 42.8056L84.4765 47.0998C81.8909 48.0322 78.4317 49.8176 75.5601 51.7475C68.5913 56.4317 65.7498 65.6077 64.906 65.1946C64.5842 65.0363 63.7495 63.7258 62.6111 61.5514C65.0051 53.194 75.8205 44.6444 83.2913 42.8056Z" fill="#13287E"/>
<path d="M82.9295 41.4935C75.369 43.3684 64.9525 51.4174 61.7495 59.8437C60.8008 57.9226 59.7121 55.5715 58.566 52.876C63.6668 45.1449 71.5598 39.5798 81.5877 36.6519L82.9295 41.4935Z" fill="#13287E"/>
<path d="M17.7974 80.1917C21.2292 60.9391 32.4522 42.9962 47.5621 30.8794C47.5592 31.0205 47.5447 31.1617 47.5457 31.3067C47.5716 34.8062 48.9688 39.2048 51.7059 46.6032C51.9253 47.1973 52.6474 49.124 53.6472 51.6052C42.6476 62.7429 37.0369 76.5956 36.9926 92.8287C36.9904 93.0521 36.9921 93.2833 36.9937 93.5067C37.2165 123.67 57.9917 148.5 88.1606 156.544C83.7625 157.741 75.9464 159.421 66.5936 159.507C37.2474 146.377 11.1479 117.512 17.7974 80.1917Z" fill="#247FFB"/>
<path d="M75.3249 116.176L75.0411 77.7554L113.375 77.4696L113.659 115.89L75.3249 116.176ZM92.4287 111.976L92.3319 98.8717L79.2567 98.9691L79.3535 112.074L92.4287 111.976ZM79.2305 94.9014L92.3058 94.8039L92.209 81.6993L79.1337 81.7968L79.2305 94.9014ZM96.2676 81.669L96.3644 94.7736L109.44 94.6762L109.343 81.5716L96.2676 81.669ZM109.47 98.7478L96.3945 98.8453L96.4913 111.95L109.566 111.852L109.47 98.7478Z" fill="#13287E"/>
<path d="M41.0552 92.8379C41.0949 78.09 45.7872 65.9059 55.3507 55.6881C57.6065 60.915 60.4533 66.7411 62.5698 68.4771C58.8245 76.5274 54.9204 89.5483 56.6256 107.05C58.8218 129.627 75.9756 144.854 85.57 151.528C58.9551 142.904 40.9907 120.107 41.0552 92.8379Z" fill="#247FFB"/>
<path d="M13.8 79.4764C13.0115 83.8991 12.6524 88.2128 12.6833 92.3981C12.9027 122.107 32.663 145.557 56.4117 158.936C40.3565 156.924 22.1275 149.127 9.14443 127.34C-6.82007 100.546 -0.0689136 55.8026 29.1895 34.2451C39.3442 26.7623 48.6659 22.4484 56.5271 19.9835C34.9986 31.9013 18.227 54.6551 13.8 79.4764Z" fill="#247FFB"/>
<path d="M119.212 8.20639C116.044 7.52455 114.997 7.20314 114.344 6.63189C113.69 6.06063 113.325 5.82821 112.522 3.03586C111.761 5.84378 111.399 6.08163 110.754 6.65864C110.113 7.23955 109.068 7.57655 105.91 8.30555C109.062 8.97967 110.109 9.28933 110.762 9.86058C111.415 10.4318 111.781 10.6721 112.599 13.4761C113.376 10.6602 113.738 10.4145 114.383 9.83359C115.024 9.25269 116.066 8.92747 119.212 8.20639Z" fill="#247FFB"/>
<path d="M106.165 62.2185C101.171 61.1427 99.521 60.6337 98.4937 59.736C97.4665 58.8384 96.8889 58.4703 95.6246 54.0667C94.4255 58.4887 93.8534 58.8614 92.8395 59.7782C91.8257 60.6911 90.1833 61.2246 85.206 62.3748C90.1762 63.4351 91.8261 63.9244 92.8534 64.826C93.8807 65.7277 94.4583 66.1035 95.7462 70.5226C96.9686 66.0848 97.5406 65.7004 98.5545 64.7836C99.5683 63.8667 101.207 63.3529 106.165 62.2185Z" fill="#247FFB"/>
<path d="M78.6771 7.94727C74.216 6.98504 72.7423 6.53356 71.8253 5.73304C70.9082 4.92859 70.3896 4.60323 69.2617 0.668902C68.1921 4.61961 67.6783 4.95267 66.7733 5.77069C65.8681 6.5848 64.4013 7.06212 59.9549 8.08683C64.3924 9.03355 65.866 9.47328 66.787 10.2777C67.7041 11.0821 68.2188 11.4193 69.3703 15.3652C70.4633 11.4025 70.973 11.0578 71.8781 10.2397C72.7871 9.41777 74.254 8.96005 78.6771 7.94727Z" fill="#247FFB"/>
</svg>
